<?xml version="1.0" standalone="no"?><!DOCTYPE svg PUBLIC "-//W3C//DTD SVG 1.1//EN" "http://www.w3.org/Graphics/SVG/1.1/DTD/svg11.dtd"><svg class="icon" width="200px" height="198.07px" viewBox="0 0 1034 1024" version="1.1" xmlns="http://www.w3.org/2000/svg"><path d="M491.313 884.793V529.237c0-8.616 4.308-15.08 12.93-19.394L808.08 361.157v12.929c0 23.707 19.394 43.1 43.096 43.1 23.707 0 43.1-19.393 43.1-43.1v-94.813c0-15.086-8.62-30.167-21.55-36.632L467.611 7.758c-12.93-8.622-30.172-8.622-43.1 0L21.55 242.64C8.62 251.258 0 264.187 0 279.273v465.454c0 15.086 8.621 30.167 21.55 36.632l402.96 232.727c12.93 8.621 30.172 8.621 43.101 0l107.743-62.49c21.55-12.93 28.015-38.788 15.085-58.182-12.929-21.55-38.787-28.015-58.181-15.086l-25.859 15.086c-6.465 4.308-15.086 0-15.086-8.621z m-34.48-782.222l277.98 161.616c15.086 8.621 15.086 30.172-2.151 38.788L456.833 436.58c-6.464 2.151-12.929 2.151-19.394 0L168.081 294.359c-15.086-8.622-15.086-30.172 0-38.788l267.207-153a19.575 19.575 0 0 1 21.545 0zM118.52 365.47l275.823 142.222c6.465 4.308 10.773 10.773 10.773 19.394v340.47c0 17.237-17.237 28.015-32.323 19.393L96.97 727.49c-6.465-4.312-10.773-12.928-10.773-19.393V384.864c0-17.243 17.237-28.016 32.323-19.394z m872.728 316.767h-96.97v-96.97c0-23.706-19.394-43.1-43.101-43.1-23.702 0-43.096 19.394-43.096 43.1v96.97h-96.97c-23.702 0-43.096 19.394-43.096 43.096s19.394 43.096 43.096 43.096h96.97v96.97c0 23.707 19.394 43.101 43.096 43.101 23.707 0 43.1-19.394 43.1-43.101v-96.97h96.97c23.702 0 43.096-19.394 43.096-43.096s-19.394-43.096-43.095-43.096z" /></svg>