<?xml version="1.0" standalone="no"?><!DOCTYPE svg PUBLIC "-//W3C//DTD SVG 1.1//EN" "http://www.w3.org/Graphics/SVG/1.1/DTD/svg11.dtd"><svg class="icon" width="200px" height="200.00px" viewBox="0 0 1024 1024" version="1.1" xmlns="http://www.w3.org/2000/svg"><path d="M66.805 158.279v721.449h884.114v-721.449h-884.114zM398.348 622.070v-154.601h221.027v154.601h-221.027zM619.376 673.603v154.594h-221.027v-154.594h221.027zM619.376 261.342v154.596h-221.027v-154.596h221.027zM343.087 261.342v154.596h-221.026v-154.596h221.026zM122.061 467.47h221.027v154.601h-221.027v-154.601zM674.63 467.47h221.025v154.601h-221.025v-154.601zM674.63 415.938v-154.596h221.025v154.596h-221.025zM122.061 673.603h221.027v154.594h-221.027v-154.594zM674.63 828.196v-154.594h221.025v154.594h-221.025zM674.63 828.196z" /></svg>