<?xml version="1.0" standalone="no"?><!DOCTYPE svg PUBLIC "-//W3C//DTD SVG 1.1//EN" "http://www.w3.org/Graphics/SVG/1.1/DTD/svg11.dtd"><svg class="icon" width="200px" height="155.15px" viewBox="0 0 1320 1024" version="1.1" xmlns="http://www.w3.org/2000/svg"><path d="M1320.811594 661.785971v118.175536h-58.961623v-118.175536c0-81.385739-15.923942-160.278261-47.178203-234.585043a599.425855 599.425855 0 0 0-128.979478-191.591885 600.449855 600.449855 0 0 0-191.191189-129.261449c-74.158377-31.462029-152.857971-47.252406-234.095304-47.252406a598.297971 598.297971 0 0 0-234.095304 47.267247c-71.635478 30.274783-135.910029 73.861565-191.191189 129.261449a601.84487 601.84487 0 0 0-128.979478 191.591884c-31.402667 74.291942-47.178203 153.184464-47.178203 234.570203v118.175536H0v-118.175536C0 296.321855 295.713391 0 660.405797 0S1320.811594 296.321855 1320.811594 661.785971zM630.917565 159.833043h58.976464V71.205101h-58.976464v88.627942zM222.757101 265.008232l62.493682 62.627246 41.716869-41.791072-62.493681-62.627247-41.71687 41.791073zM70.90829 691.333565h88.449855v-59.095188h-88.449855v59.095188z m1090.545159-59.095188v59.095188h88.449855v-59.095188h-88.449855zM993.873623 285.992812l41.702029 41.805913 62.508522-62.627247-41.702029-41.820753-62.508522 62.627246z m-330.054493 486.874898a29.606957 29.606957 0 0 0-29.488231 29.547594c0 16.250435 13.267478 29.547594 29.473391 29.547595a29.606957 29.606957 0 0 0 29.488232-29.532754c0-16.265275-13.267478-29.562435-29.488232-29.562435z m0-59.080348c48.780986 0 88.449855 39.743072 88.449856 88.627942 0 48.89971-39.66887 88.642783-88.449856 88.642783-48.795826 0-88.449855-39.743072-88.449855-88.642783 0-48.88487 39.654029-88.627942 88.449855-88.627942z m-105.264231-115.370666l79.901681 227.788058 48.202203 19.648927 11.649855-50.665739-139.753739-196.771246zM364.544 223.49913l397.133913 558.970435-33.02029 144.176232-137.097275-55.830261L364.544 223.49913z m708.622841 741.405682H247.644754V1024h825.522087v-59.095188z" /></svg>