<?xml version="1.0" standalone="no"?><!DOCTYPE svg PUBLIC "-//W3C//DTD SVG 1.1//EN" "http://www.w3.org/Graphics/SVG/1.1/DTD/svg11.dtd"><svg class="icon" width="200px" height="200.00px" viewBox="0 0 1024 1024" version="1.1" xmlns="http://www.w3.org/2000/svg"><path d="M1008 29.184l-2.56-10.496-10.624-2.688c-178.688-47.104-454.784 0-689.92 273.536-110.336-2.56-199.68 36.736-289.152 125.824L0 430.976l216.832 145.28c-28.8 52.352-11.776 129.664 43.52 184.576 55.04 55.04 132.608 72.064 183.808 44.544L590.08 1024l15.744-15.744c92.032-91.52 131.456-180.48 127.616-291.84C1006.72 480.64 1055.36 207.232 1008 29.056z m-295.68 380.288a102.784 102.784 0 0 1-97.792-106.752 102.912 102.912 0 0 1 106.752-97.792c56.32 2.176 100.096 50.56 97.792 106.752a102.912 102.912 0 0 1-106.752 97.792zM68.608 850.816C26.24 893.312 0 1024 0 1024s125.824-21.248 173.184-68.608c35.968-35.84 42.496-88.32 13.056-117.76-29.44-29.44-81.664-22.784-117.632 13.184z" /></svg>