<?xml version="1.0" standalone="no"?><!DOCTYPE svg PUBLIC "-//W3C//DTD SVG 1.1//EN" "http://www.w3.org/Graphics/SVG/1.1/DTD/svg11.dtd"><svg t="1575455395193" class="icon" viewBox="0 0 1058 1024" version="1.1" xmlns="http://www.w3.org/2000/svg" p-id="6681" xmlns:xlink="http://www.w3.org/1999/xlink" width="206.640625" height="200"><defs><style type="text/css">@font-face { font-weight: 400; font-style: normal; font-family: Inter-Loom; src: url("https://cdn.loom.com/assets/fonts/inter/Inter-UI-Regular.woff2") format("woff2"); }
@font-face { font-weight: 400; font-style: italic; font-family: Inter-Loom; src: url("https://cdn.loom.com/assets/fonts/inter/Inter-UI-Italic.woff2") format("woff2"); }
@font-face { font-weight: 500; font-style: normal; font-family: Inter-Loom; src: url("https://cdn.loom.com/assets/fonts/inter/Inter-UI-Medium.woff2") format("woff2"); }
@font-face { font-weight: 500; font-style: italic; font-family: Inter-Loom; src: url("https://cdn.loom.com/assets/fonts/inter/Inter-UI-MediumItalic.woff2") format("woff2"); }
@font-face { font-weight: 700; font-style: normal; font-family: Inter-Loom; src: url("https://cdn.loom.com/assets/fonts/inter/Inter-UI-Bold.woff2") format("woff2"); }
@font-face { font-weight: 700; font-style: italic; font-family: Inter-Loom; src: url("https://cdn.loom.com/assets/fonts/inter/Inter-UI-BoldItalic.woff2") format("woff2"); }
@font-face { font-weight: 900; font-style: normal; font-family: Inter-Loom; src: url("https://cdn.loom.com/assets/fonts/inter/Inter-UI-Black.woff2") format("woff2"); }
@font-face { font-weight: 900; font-style: italic; font-family: Inter-Loom; src: url("https://cdn.loom.com/assets/fonts/inter/Inter-UI-BlackItalic.woff2") format("woff2"); }
</style></defs><path d="M1004.59692 960.496124c17.617034 0 32.032413 14.288372 32.032413 31.749292 0 17.462243-14.41538 31.754584-32.032413 31.754584H53.203018C35.584661 1024 21.167959 1009.707659 21.167959 992.245416 21.167959 974.784496 35.583339 960.496124 53.204341 960.496124h951.392579zM261.071049 713.815318C116.922543 713.815318 0 596.892775 0 452.738977c0-69.937612 27.229933-135.609881 76.876734-184.723514 46.450439-46.450439 107.316258-73.144558 172.447421-75.813044C295.241426 77.412548 406.292506 0 530.156817 0 668.431214 0 788.556734 96.633054 820.589147 229.039959c131.336599 2.132672 237.583876 109.983421 237.583876 241.850542 0 133.475886-108.379948 241.854512-241.857157 241.854512-27.223318 0-53.91876-4.271959-78.480207-12.815876-16.548052-5.87014-25.62646-24.020341-19.75632-40.575008 5.876755-16.546729 24.028279-25.62646 40.580299-19.754997 17.618357 6.411245 37.373354 9.612899 57.12306 9.612899C914.019225 649.212031 993.571059 569.661519 993.571059 471.424992c0-98.236527-79.551835-177.784393-177.788361-177.784393-6.405953 0-12.810584 0.535814-19.215215 1.066336-17.087835 1.068982-32.036382-10.677912-34.170377-27.760454C746.380899 151.628734 646.010377 64.601964 529.621003 64.601964c-103.577468 0-196.473054 69.404444-225.301168 168.70863-3.738791 13.880889-16.554667 22.957974-30.967401 22.957974-2.668486 0-5.336972 0-8.009426-0.533167h-4.271959c-52.321902 0-100.905013 20.285519-138.277044 57.127028C85.421974 350.23446 64.601964 399.34677 64.601964 452.204486c0 108.379948 88.624951 197.007545 197.003576 197.007545 20.290811 0 40.045809-3.201654 61.40031-9.612899 17.08122-5.335649 34.703545 4.273282 40.039194 21.359793 5.340941 17.08122-4.271959 34.699576-21.353178 40.040517-27.229933 8.542594-53.925375 12.815876-80.620817 12.815876zM529.00184 507.290129c17.486057 0 31.794274 14.308217 31.794274 31.791628v263.898295l59.349664-59.349664c12.188775-12.184806 32.323473-12.715328 45.04277 0 12.72062 12.72062 12.72062 32.328765 0 45.04277l-113.40337 113.935214c-6.358326 6.357003-14.308217 9.537488-22.782015 9.537488-8.480413 0-16.430305-3.180486-22.256786-9.538811l-113.935214-113.933891c-12.188775-12.184806-12.188775-32.32215 0-45.04277 12.190098-12.184806 32.328765-12.184806 45.04277 0l59.349664 59.349664V539.081757c0-17.483411 14.308217-31.791628 31.798243-31.791628z" p-id="6682"></path></svg>