<?xml version="1.0" standalone="no"?><!DOCTYPE svg PUBLIC "-//W3C//DTD SVG 1.1//EN" "http://www.w3.org/Graphics/SVG/1.1/DTD/svg11.dtd"><svg t="1575456152806" class="icon" viewBox="0 0 1200 1024" version="1.1" xmlns="http://www.w3.org/2000/svg" p-id="12550" xmlns:xlink="http://www.w3.org/1999/xlink" width="234.375" height="200"><defs><style type="text/css">@font-face { font-weight: 400; font-style: normal; font-family: Inter-Loom; src: url("https://cdn.loom.com/assets/fonts/inter/Inter-UI-Regular.woff2") format("woff2"); }
@font-face { font-weight: 400; font-style: italic; font-family: Inter-Loom; src: url("https://cdn.loom.com/assets/fonts/inter/Inter-UI-Italic.woff2") format("woff2"); }
@font-face { font-weight: 500; font-style: normal; font-family: Inter-Loom; src: url("https://cdn.loom.com/assets/fonts/inter/Inter-UI-Medium.woff2") format("woff2"); }
@font-face { font-weight: 500; font-style: italic; font-family: Inter-Loom; src: url("https://cdn.loom.com/assets/fonts/inter/Inter-UI-MediumItalic.woff2") format("woff2"); }
@font-face { font-weight: 700; font-style: normal; font-family: Inter-Loom; src: url("https://cdn.loom.com/assets/fonts/inter/Inter-UI-Bold.woff2") format("woff2"); }
@font-face { font-weight: 700; font-style: italic; font-family: Inter-Loom; src: url("https://cdn.loom.com/assets/fonts/inter/Inter-UI-BoldItalic.woff2") format("woff2"); }
@font-face { font-weight: 900; font-style: normal; font-family: Inter-Loom; src: url("https://cdn.loom.com/assets/fonts/inter/Inter-UI-Black.woff2") format("woff2"); }
@font-face { font-weight: 900; font-style: italic; font-family: Inter-Loom; src: url("https://cdn.loom.com/assets/fonts/inter/Inter-UI-BlackItalic.woff2") format("woff2"); }
</style></defs><path d="M1043.511824 365.640137l-0.11652 0.021185c-7.828034-12.022758-31.132058-41.385828-64.276736-41.385828l-759.287473 0.296597c-28.324982 0-47.963918 13.982414-64.435626 39.955808C138.913169 390.522479-0.010593 604.315713-0.010593 649.673818v290.823627a82.475059 82.475059 0 0 0 82.676322 82.072535h1033.533464a82.411503 82.411503 0 0 0 82.676322-82.072535V649.430185c-0.010593-45.315734-155.363691-283.790049-155.363691-283.790048zM770.473404 627.153657l-0.105927-0.148299a38.45164 38.45164 0 0 0-39.161353 28.674543c0 2.097362 0.296597 4.194724 0.296597 6.292086 0 74.244502-60.187938 134.421848-134.421848 134.421848-74.233909 0-134.421848-60.177346-134.421847-134.421848 0-2.690555 0.296597-5.296369 0.455487-7.986924-9.597021-26.820813-38.218599-26.969111-38.218599-26.969112H69.82733L190.065501 405.8078s22.022303-39.659212 53.048433-38.462233h716.079694c24.977677 0 29.225365 8.993235 47.211834 38.462233l122.187235 221.345857H770.473404zM340.376456 207.088031l-91.362367-86.61682a24.522189 24.522189 0 0 1 33.822613-35.517451l91.214069 86.722748a24.437447 24.437447 0 0 1-33.674315 35.411523z m251.715237-38.26097a24.363298 24.363298 0 0 1-7.594993-17.086087l-3.294341-125.778173a24.469225 24.469225 0 0 1 48.949043-1.292314l3.199007 125.831137a24.416262 24.416262 0 0 1-41.216345 18.33603h-0.042371z m236.874812 33.769649a24.363298 24.363298 0 0 1-7.594994-17.086086 24.596338 24.596338 0 0 1 6.694611-17.435647l86.712155-91.37296a24.479818 24.479818 0 0 1 35.464487 33.716686l-86.712155 91.267032a24.469225 24.469225 0 0 1-34.564104 0.910975z m0 0" p-id="12551"></path></svg>