<?xml version="1.0" standalone="no"?><!DOCTYPE svg PUBLIC "-//W3C//DTD SVG 1.1//EN" "http://www.w3.org/Graphics/SVG/1.1/DTD/svg11.dtd"><svg t="1575456286273" class="icon" viewBox="0 0 1024 1024" version="1.1" xmlns="http://www.w3.org/2000/svg" p-id="13873" xmlns:xlink="http://www.w3.org/1999/xlink" width="200" height="200"><defs><style type="text/css">@font-face { font-weight: 400; font-style: normal; font-family: Inter-Loom; src: url("https://cdn.loom.com/assets/fonts/inter/Inter-UI-Regular.woff2") format("woff2"); }
@font-face { font-weight: 400; font-style: italic; font-family: Inter-Loom; src: url("https://cdn.loom.com/assets/fonts/inter/Inter-UI-Italic.woff2") format("woff2"); }
@font-face { font-weight: 500; font-style: normal; font-family: Inter-Loom; src: url("https://cdn.loom.com/assets/fonts/inter/Inter-UI-Medium.woff2") format("woff2"); }
@font-face { font-weight: 500; font-style: italic; font-family: Inter-Loom; src: url("https://cdn.loom.com/assets/fonts/inter/Inter-UI-MediumItalic.woff2") format("woff2"); }
@font-face { font-weight: 700; font-style: normal; font-family: Inter-Loom; src: url("https://cdn.loom.com/assets/fonts/inter/Inter-UI-Bold.woff2") format("woff2"); }
@font-face { font-weight: 700; font-style: italic; font-family: Inter-Loom; src: url("https://cdn.loom.com/assets/fonts/inter/Inter-UI-BoldItalic.woff2") format("woff2"); }
@font-face { font-weight: 900; font-style: normal; font-family: Inter-Loom; src: url("https://cdn.loom.com/assets/fonts/inter/Inter-UI-Black.woff2") format("woff2"); }
@font-face { font-weight: 900; font-style: italic; font-family: Inter-Loom; src: url("https://cdn.loom.com/assets/fonts/inter/Inter-UI-BlackItalic.woff2") format("woff2"); }
</style></defs><path d="M614.4 307.2H102.4C46.08 307.2 0 353.28 0 409.6v512c0 56.32 46.08 102.4 102.4 102.4h512c56.32 0 102.4-46.08 102.4-102.4V409.6c0-56.32-46.08-102.4-102.4-102.4z m51.2 614.4c0 30.72-20.48 51.2-51.2 51.2H102.4c-30.72 0-51.2-20.48-51.2-51.2V409.6c0-30.72 20.48-51.2 51.2-51.2h512c30.72 0 51.2 20.48 51.2 51.2v512z" fill="#2C3855" p-id="13874"></path><path d="M768 153.6H281.6c-15.36 0-25.6 10.24-25.6 25.6s10.24 25.6 25.6 25.6H768c25.6 0 51.2 25.6 51.2 51.2v486.4c0 15.36 10.24 25.6 25.6 25.6s25.6-10.24 25.6-25.6V256c0-51.2-51.2-102.4-102.4-102.4z" fill="#2C3855" p-id="13875"></path><path d="M921.6 0H435.2c-15.36 0-25.6 10.24-25.6 25.6s10.24 25.6 25.6 25.6H921.6c25.6 0 51.2 25.6 51.2 51.2v486.4c0 15.36 10.24 25.6 25.6 25.6s25.6-10.24 25.6-25.6V102.4c0-51.2-51.2-102.4-102.4-102.4zM537.6 819.2h-358.4c-15.36 0-25.6 10.24-25.6 25.6s10.24 25.6 25.6 25.6h358.4c15.36 0 25.6-10.24 25.6-25.6s-10.24-25.6-25.6-25.6z" fill="#2C3855" p-id="13876"></path></svg>